0
SECTION
2
HEADER
9
$INSUNITS
70
4
0
ENDSEC
0
SECTION
2
TABLES
0
TABLE
2
LTYPE
0
LTYPE
72
65
70
64
2
CONTINUOUS
3
______
73
0
40
0
0
ENDTAB
0
TABLE
2
LAYER
0
ENDTAB
0
ENDSEC
0
SECTION
2
ENTITIES
0
LINE
8
0
10
117.251872
20
-89.4018732
11
271.501872
21
-89.4981291
0
LINE
8
0
10
274.5
20
-92.4981285
11
274.5
21
-164.5
0
LINE
8
0
10
271.5
20
-167.5
11
212.6508118
21
-167.5
0
LINE
8
0
10
212.349949
20
-167.5151245
11
174.950051
21
-171.2848755
0
LINE
8
0
10
174.6491882
20
-171.3
11
126.9122777
21
-171.3
0
LINE
8
0
10
124.0662278
20
-169.2486834
11
114.4039501
21
-140.2618504
0
LINE
8
0
10
114.25
20
-139.313167
11
114.25
21
-92.4018726
0
ARC
8
0
10
271.5
20
-92.4981285
40
3
50
0
51
89.9642474
0
ARC
8
0
10
271.5
20
-164.5
40
3
50
270
51
0
0
ARC
8
0
10
212.6508118
20
-170.5
40
3
50
90
51
95.7557319
0
ARC
8
0
10
174.6491882
20
-168.3
40
3
50
270
51
275.7557319
0
ARC
8
0
10
126.9122777
20
-168.3
40
3
50
198.4349506
51
270
0
ARC
8
0
10
117.25
20
-139.313167
40
3
50
180
51
198.4349506
0
ARC
8
0
10
117.25
20
-92.4018726
40
3
50
89.9642474
51
180
0
LINE
8
0
10
143
20
-107
11
157
21
-107
0
LINE
8
0
10
157
20
-107
11
157
21
-93
0
LINE
8
0
10
157
20
-93
11
143
21
-93
0
LINE
8
0
10
143
20
-93
11
143
21
-107
0
LINE
8
0
10
162
20
-107
11
176
21
-107
0
LINE
8
0
10
176
20
-107
11
176
21
-93
0
LINE
8
0
10
176
20
-93
11
162
21
-93
0
LINE
8
0
10
162
20
-93
11
162
21
-107
0
LINE
8
0
10
181
20
-107
11
195
21
-107
0
LINE
8
0
10
195
20
-107
11
195
21
-93
0
LINE
8
0
10
195
20
-93
11
181
21
-93
0
LINE
8
0
10
181
20
-93
11
181
21
-107
0
LINE
8
0
10
200
20
-107
11
214
21
-107
0
LINE
8
0
10
214
20
-107
11
214
21
-93
0
LINE
8
0
10
214
20
-93
11
200
21
-93
0
LINE
8
0
10
200
20
-93
11
200
21
-107
0
LINE
8
0
10
219
20
-107
11
233
21
-107
0
LINE
8
0
10
233
20
-107
11
233
21
-93
0
LINE
8
0
10
233
20
-93
11
219
21
-93
0
LINE
8
0
10
219
20
-93
11
219
21
-107
0
LINE
8
0
10
238
20
-107
11
252
21
-107
0
LINE
8
0
10
252
20
-107
11
252
21
-93
0
LINE
8
0
10
252
20
-93
11
238
21
-93
0
LINE
8
0
10
238
20
-93
11
238
21
-107
0
LINE
8
0
10
257
20
-107
11
271
21
-107
0
LINE
8
0
10
271
20
-107
11
271
21
-93
0
LINE
8
0
10
271
20
-93
11
257
21
-93
0
LINE
8
0
10
257
20
-93
11
257
21
-107
0
LINE
8
0
10
150.03
20
-126
11
164.03
21
-126
0
LINE
8
0
10
164.03
20
-126
11
164.03
21
-112
0
LINE
8
0
10
164.03
20
-112
11
150.03
21
-112
0
LINE
8
0
10
150.03
20
-112
11
150.03
21
-126
0
LINE
8
0
10
169.03
20
-126
11
183.03
21
-126
0
LINE
8
0
10
183.03
20
-126
11
183.03
21
-112
0
LINE
8
0
10
183.03
20
-112
11
169.03
21
-112
0
LINE
8
0
10
169.03
20
-112
11
169.03
21
-126
0
LINE
8
0
10
188.03
20
-126
11
202.03
21
-126
0
LINE
8
0
10
202.03
20
-126
11
202.03
21
-112
0
LINE
8
0
10
202.03
20
-112
11
188.03
21
-112
0
LINE
8
0
10
188.03
20
-112
11
188.03
21
-126
0
LINE
8
0
10
207.03
20
-126
11
221.03
21
-126
0
LINE
8
0
10
221.03
20
-126
11
221.03
21
-112
0
LINE
8
0
10
221.03
20
-112
11
207.03
21
-112
0
LINE
8
0
10
207.03
20
-112
11
207.03
21
-126
0
LINE
8
0
10
226.03
20
-126
11
240.03
21
-126
0
LINE
8
0
10
240.03
20
-126
11
240.03
21
-112
0
LINE
8
0
10
240.03
20
-112
11
226.03
21
-112
0
LINE
8
0
10
226.03
20
-112
11
226.03
21
-126
0
LINE
8
0
10
249.78
20
-126
11
263.78
21
-126
0
LINE
8
0
10
263.78
20
-126
11
263.78
21
-112
0
LINE
8
0
10
263.78
20
-112
11
249.78
21
-112
0
LINE
8
0
10
249.78
20
-112
11
249.78
21
-126
0
LINE
8
0
10
140
20
-145
11
154
21
-145
0
LINE
8
0
10
154
20
-145
11
154
21
-131
0
LINE
8
0
10
154
20
-131
11
140
21
-131
0
LINE
8
0
10
140
20
-131
11
140
21
-145
0
LINE
8
0
10
159
20
-145
11
173
21
-145
0
LINE
8
0
10
173
20
-145
11
173
21
-131
0
LINE
8
0
10
173
20
-131
11
159
21
-131
0
LINE
8
0
10
159
20
-131
11
159
21
-145
0
LINE
8
0
10
178
20
-145
11
192
21
-145
0
LINE
8
0
10
192
20
-145
11
192
21
-131
0
LINE
8
0
10
192
20
-131
11
178
21
-131
0
LINE
8
0
10
178
20
-131
11
178
21
-145
0
LINE
8
0
10
197
20
-145
11
211
21
-145
0
LINE
8
0
10
211
20
-145
11
211
21
-131
0
LINE
8
0
10
211
20
-131
11
197
21
-131
0
LINE
8
0
10
197
20
-131
11
197
21
-145
0
LINE
8
0
10
216
20
-145
11
230
21
-145
0
LINE
8
0
10
230
20
-145
11
230
21
-131
0
LINE
8
0
10
230
20
-131
11
216
21
-131
0
LINE
8
0
10
216
20
-131
11
216
21
-145
0
LINE
8
0
10
235
20
-145
11
249
21
-145
0
LINE
8
0
10
249
20
-145
11
249
21
-131
0
LINE
8
0
10
249
20
-131
11
235
21
-131
0
LINE
8
0
10
235
20
-131
11
235
21
-145
0
LINE
8
0
10
254
20
-145
11
268
21
-145
0
LINE
8
0
10
268
20
-145
11
268
21
-131
0
LINE
8
0
10
268
20
-131
11
254
21
-131
0
LINE
8
0
10
254
20
-131
11
254
21
-145
0
LINE
8
0
10
216
20
-164
11
230
21
-164
0
LINE
8
0
10
230
20
-164
11
230
21
-150
0
LINE
8
0
10
230
20
-150
11
216
21
-150
0
LINE
8
0
10
216
20
-150
11
216
21
-164
0
LINE
8
0
10
235
20
-164
11
249
21
-164
0
LINE
8
0
10
249
20
-164
11
249
21
-150
0
LINE
8
0
10
249
20
-150
11
235
21
-150
0
LINE
8
0
10
235
20
-150
11
235
21
-164
0
LINE
8
0
10
254
20
-164
11
268
21
-164
0
LINE
8
0
10
268
20
-164
11
268
21
-150
0
LINE
8
0
10
268
20
-150
11
254
21
-150
0
LINE
8
0
10
254
20
-150
11
254
21
-164
0
LINE
8
0
10
133
20
-167.8
11
147
21
-167.8
0
LINE
8
0
10
147
20
-167.8
11
147
21
-153.8
0
LINE
8
0
10
147
20
-153.8
11
133
21
-153.8
0
LINE
8
0
10
133
20
-153.8
11
133
21
-167.8
0
LINE
8
0
10
161.5
20
-167.8
11
175.5
21
-167.8
0
LINE
8
0
10
175.5
20
-167.8
11
175.5
21
-153.8
0
LINE
8
0
10
175.5
20
-153.8
11
161.5
21
-153.8
0
LINE
8
0
10
161.5
20
-153.8
11
161.5
21
-167.8
0
ENDSEC
0
EOF