0
SECTION
2
HEADER
9
$INSUNITS
70
4
0
ENDSEC
0
SECTION
2
TABLES
0
TABLE
2
LTYPE
0
LTYPE
72
65
70
64
2
CONTINUOUS
3
______
73
0
40
0
0
ENDTAB
0
TABLE
2
LAYER
0
ENDTAB
0
ENDSEC
0
SECTION
2
ENTITIES
0
LINE
8
0
10
117.2549921
20
-84.4018742
11
271.5049921
21
-84.49813
0
ARC
8
0
10
271.5
20
-92.4981285
40
8
50
0
51
89.9642474
0
LINE
8
0
10
279.5
20
-92.4981285
11
279.5
21
-164.5
0
ARC
8
0
10
271.5
20
-164.5
40
8
50
270
51
360
0
LINE
8
0
10
271.5
20
-172.5
11
212.7513531
21
-172.5
0
LINE
8
0
10
212.7513531
20
-172.5
11
175.4514889
21
-176.259668
0
ARC
8
0
10
174.6491882
20
-168.3
40
8
50
270
51
275.7557319
0
LINE
8
0
10
174.6491882
20
-176.3
11
126.9122777
21
-176.3
0
ARC
8
0
10
126.9122777
20
-168.3
40
8
50
198.4349506
51
270
0
LINE
8
0
10
119.3228113
20
-170.8298222
11
109.6605336
21
-141.8429892
0
ARC
8
0
10
117.25
20
-139.313167
40
8
50
180
51
198.4349506
0
LINE
8
0
10
109.25
20
-139.313167
11
109.25
21
-92.4018726
0
ARC
8
0
10
117.25
20
-92.4018726
40
8
50
89.9642474
51
180
0
LINE
8
0
10
117.25312
20
-87.4018736
11
271.50312
21
-87.4981294
0
ARC
8
0
10
271.5
20
-92.4981285
40
5
50
0
51
89.9642474
0
LINE
8
0
10
276.5
20
-92.4981285
11
276.5
21
-164.5
0
ARC
8
0
10
271.5
20
-164.5
40
5
50
270
51
360
0
LINE
8
0
10
271.5
20
-169.5
11
212.6508118
21
-169.5
0
ARC
8
0
10
212.6508118
20
-170.5
40
1
50
90
51
95.7557319
0
LINE
8
0
10
212.5505242
20
-169.5050415
11
175.1506261
21
-173.2747925
0
ARC
8
0
10
174.6491882
20
-168.3
40
5
50
270
51
275.7557319
0
LINE
8
0
10
174.6491882
20
-173.3
11
126.9122777
21
-173.3
0
ARC
8
0
10
126.9122777
20
-168.3
40
5
50
198.4349506
51
270
0
LINE
8
0
10
122.1688612
20
-169.8811389
11
112.5065835
21
-140.8943059
0
ARC
8
0
10
117.25
20
-139.313167
40
5
50
180
51
198.4349506
0
LINE
8
0
10
112.25
20
-139.313167
11
112.25
21
-92.4018726
0
ARC
8
0
10
117.25
20
-92.4018726
40
5
50
89.9642474
51
180
0
ENDSEC
0
EOF