0
SECTION
2
HEADER
9
$INSUNITS
70
4
0
ENDSEC
0
SECTION
2
TABLES
0
TABLE
2
LTYPE
0
LTYPE
72
65
70
64
2
CONTINUOUS
3
______
73
0
40
0
0
ENDTAB
0
TABLE
2
LAYER
0
ENDTAB
0
ENDSEC
0
SECTION
2
ENTITIES
0
LINE
8
0
10
251.9455115
20
-85.4019257
11
101.9859177
21
-85.4980845
0
ARC
8
0
10
101.9904062
20
-92.4980831
40
7
50
90.0367381
51
179.816361
0
LINE
8
0
10
94.9904421
20
-92.4756474
11
94.7596668
21
-164.4775643
0
ARC
8
0
10
101.7596308
20
-164.5
40
7
50
179.816361
51
270
0
LINE
8
0
10
101.7596308
20
-171.5
11
148.4873209
21
-171.5
0
LINE
8
0
10
148.4873209
20
-171.5
11
193.439912
21
-175.2754414
0
ARC
8
0
10
194.0257597
20
-168.3
40
7
50
265.1991571
51
270
0
LINE
8
0
10
194.0257597
20
-175.3
11
242.2877223
21
-175.3
0
ARC
8
0
10
242.2877223
20
-168.3
40
7
50
270
51
341.5650494
0
LINE
8
0
10
248.9285054
20
-170.5135945
11
258.5907831
21
-141.5267615
0
ARC
8
0
10
251.95
20
-139.313167
40
7
50
341.5650494
51
360
0
LINE
8
0
10
258.95
20
-139.313167
11
258.95
21
-92.4019243
0
ARC
8
0
10
251.95
20
-92.4019243
40
7
50
0
51
90.0367381
0
CIRCLE
8
0
10
154.53
20
-151.3
40
1
0
CIRCLE
8
0
10
181.2
20
-156.05
40
1
0
CIRCLE
8
0
10
217.8
20
-94.3
40
1
0
CIRCLE
8
0
10
103.325
20
-138
40
1
0
CIRCLE
8
0
10
232.05
20
-138
40
1
0
CIRCLE
8
0
10
122.8
20
-111.4
40
1
0
LINE
8
0
10
251.9474352
20
-88.4019251
11
101.9878413
21
-88.4980839
0
ARC
8
0
10
101.9904062
20
-92.4980831
40
4
50
90.0367381
51
179.816361
0
LINE
8
0
10
97.9904267
20
-92.4852627
11
97.7596514
21
-164.4871796
0
ARC
8
0
10
101.7596308
20
-164.5
40
4
50
179.816361
51
270
0
LINE
8
0
10
101.7596308
20
-168.5
11
148.5292403
21
-168.5
0
ARC
8
0
10
148.5292403
20
-170.5
40
2
50
85.1991571
51
90
0
LINE
8
0
10
148.6966253
20
-168.5070167
11
193.6909896
21
-172.2859665
0
ARC
8
0
10
194.0257597
20
-168.3
40
4
50
265.1991571
51
270
0
LINE
8
0
10
194.0257597
20
-172.3
11
242.2877223
21
-172.3
0
ARC
8
0
10
242.2877223
20
-168.3
40
4
50
270
51
341.5650494
0
LINE
8
0
10
246.0824555
20
-169.5649112
11
255.7447332
21
-140.5780782
0
ARC
8
0
10
251.95
20
-139.313167
40
4
50
341.5650494
51
360
0
LINE
8
0
10
255.95
20
-139.313167
11
255.95
21
-92.4019243
0
ARC
8
0
10
251.95
20
-92.4019243
40
4
50
0
51
90.0367381
0
ENDSEC
0
EOF